<svg xmlns="http://www.w3.org/2000/svg" viewBox="0 0 512 512">
  <defs>
    <linearGradient id="bg" x1="0%" y1="0%" x2="100%" y2="100%">
      <stop offset="0%" stop-color="#2563eb"/>
      <stop offset="100%" stop-color="#1d4ed8"/>
    </linearGradient>
  </defs>
  <rect width="512" height="512" rx="120" fill="url(#bg)"/>
  <path d="M384 176c-14 0-30 3-48 9-16 6-34 16-52 29-16-31-43-56-82-73-32-14-62-21-88-21-8 0-15 1-22 2 76 23 127 76 150 145-34 28-61 59-80 92-2 3-3 7-5 10 27-20 54-37 79-53 11 42 13 78 8 106-2 12-6 23-10 33 43-42 69-95 77-153 20-8 38-16 54-25 40-21 60-46 60-74 0-30-18-45-41-45z" fill="#f8fafc"/>
</svg>
